<mxfile host="app.diagrams.net" modified="2023-08-04T07:25:53.072Z" agent="Mozilla/5.0 (Windows NT 10.0; Win64; x64) AppleWebKit/537.36 (KHTML, like Gecko) Chrome/115.0.0.0 Safari/537.36" etag="QwyN_6fi6cVDrtPPyL1g" version="21.6.5" type="github">
  <diagram name="Page-1" id="edf60f1a-56cd-e834-aa8a-f176f3a09ee4">
    <mxGraphModel dx="4049" dy="2680" grid="1" gridSize="10" guides="1" tooltips="1" connect="1" arrows="1" fold="1" page="0" pageScale="1" pageWidth="1200" pageHeight="1920" background="none" math="0" shadow="0">
      <root>
        <mxCell id="0" />
        <mxCell id="1" parent="0" />
        <mxCell id="U9xf68Dv_fSdAsA3OCzk-1" value="Start" style="strokeWidth=5;html=1;shape=mxgraph.flowchart.start_1;whiteSpace=wrap;fontSize=30;" vertex="1" parent="1">
          <mxGeometry x="-1233.8000000000002" y="-1290" width="192.6" height="80" as="geometry" />
        </mxCell>
        <mxCell id="U9xf68Dv_fSdAsA3OCzk-3" value="" style="verticalLabelPosition=bottom;verticalAlign=top;html=1;shape=hexagon;perimeter=hexagonPerimeter2;arcSize=6;size=0.13725490196078433;strokeColor=default;strokeWidth=5;fontFamily=Helvetica;fontSize=30;fontColor=default;fillColor=default;spacing=0;" vertex="1" parent="1">
          <mxGeometry x="-1480" y="-1035" width="255" height="70" as="geometry" />
        </mxCell>
        <mxCell id="U9xf68Dv_fSdAsA3OCzk-5" value="Temprature Default" style="text;html=1;align=center;verticalAlign=middle;resizable=0;points=[];autosize=1;strokeColor=none;fillColor=none;fontSize=23;fontFamily=Helvetica;fontColor=default;" vertex="1" parent="1">
          <mxGeometry x="-1462.5" y="-1020" width="220" height="40" as="geometry" />
        </mxCell>
        <mxCell id="U9xf68Dv_fSdAsA3OCzk-6" value="" style="endArrow=classic;html=1;rounded=0;fontFamily=Helvetica;fontSize=30;fontColor=default;exitX=0.5;exitY=1;exitDx=0;exitDy=0;exitPerimeter=0;strokeWidth=3;entryX=0.5;entryY=0;entryDx=0;entryDy=0;" edge="1" parent="1" source="U9xf68Dv_fSdAsA3OCzk-1" target="U9xf68Dv_fSdAsA3OCzk-8">
          <mxGeometry width="50" height="50" relative="1" as="geometry">
            <mxPoint x="-1010" y="-1130" as="sourcePoint" />
            <mxPoint x="-1140" y="-1180" as="targetPoint" />
          </mxGeometry>
        </mxCell>
        <mxCell id="U9xf68Dv_fSdAsA3OCzk-8" value="Power On" style="shape=parallelogram;html=1;strokeWidth=5;perimeter=parallelogramPerimeter;whiteSpace=wrap;rounded=1;arcSize=12;size=0.23;strokeColor=default;fontFamily=Helvetica;fontSize=30;fontColor=default;fillColor=default;" vertex="1" parent="1">
          <mxGeometry x="-1256.67" y="-1170" width="236.67" height="70" as="geometry" />
        </mxCell>
        <mxCell id="U9xf68Dv_fSdAsA3OCzk-9" value="" style="endArrow=classic;html=1;rounded=0;fontFamily=Helvetica;fontSize=30;fontColor=default;exitX=0.5;exitY=1;exitDx=0;exitDy=0;strokeWidth=3;entryX=0.5;entryY=0;entryDx=0;entryDy=0;" edge="1" parent="1" source="U9xf68Dv_fSdAsA3OCzk-8" target="U9xf68Dv_fSdAsA3OCzk-3">
          <mxGeometry width="50" height="50" relative="1" as="geometry">
            <mxPoint x="-1255.835" y="-1085" as="sourcePoint" />
            <mxPoint x="-1490" y="-1035" as="targetPoint" />
            <Array as="points">
              <mxPoint x="-1138" y="-1070" />
              <mxPoint x="-1352" y="-1070" />
            </Array>
          </mxGeometry>
        </mxCell>
        <mxCell id="U9xf68Dv_fSdAsA3OCzk-12" value="" style="endArrow=classic;html=1;rounded=0;fontFamily=Helvetica;fontSize=30;fontColor=default;strokeWidth=3;entryX=0.5;entryY=0;entryDx=0;entryDy=0;entryPerimeter=0;" edge="1" parent="1">
          <mxGeometry width="50" height="50" relative="1" as="geometry">
            <mxPoint x="-144.16999999999996" y="-640" as="sourcePoint" />
            <mxPoint x="-142.49999999999943" y="-450" as="targetPoint" />
          </mxGeometry>
        </mxCell>
        <mxCell id="U9xf68Dv_fSdAsA3OCzk-17" value="" style="endArrow=classic;html=1;rounded=0;fontFamily=Helvetica;fontSize=30;fontColor=default;exitX=0.5;exitY=1;exitDx=0;exitDy=0;strokeWidth=3;entryX=0.5;entryY=0;entryDx=0;entryDy=0;" edge="1" parent="1" source="U9xf68Dv_fSdAsA3OCzk-8" target="U9xf68Dv_fSdAsA3OCzk-32">
          <mxGeometry width="50" height="50" relative="1" as="geometry">
            <mxPoint x="-800" y="-1100" as="sourcePoint" />
            <mxPoint x="-565.5" y="-1060" as="targetPoint" />
            <Array as="points">
              <mxPoint x="-1140" y="-1070" />
              <mxPoint x="-916" y="-1070" />
            </Array>
          </mxGeometry>
        </mxCell>
        <mxCell id="U9xf68Dv_fSdAsA3OCzk-20" value="" style="rounded=1;whiteSpace=wrap;html=1;absoluteArcSize=1;arcSize=14;strokeWidth=5;strokeColor=default;fontFamily=Helvetica;fontSize=30;fontColor=default;fillColor=default;" vertex="1" parent="1">
          <mxGeometry x="-260.0100000000001" y="10" width="236.68" height="80" as="geometry" />
        </mxCell>
        <mxCell id="U9xf68Dv_fSdAsA3OCzk-23" value="" style="endArrow=classic;html=1;rounded=0;fontFamily=Helvetica;fontSize=30;fontColor=default;exitX=0;exitY=0.5;exitDx=0;exitDy=0;strokeWidth=3;exitPerimeter=0;entryX=0.5;entryY=0;entryDx=0;entryDy=0;" edge="1" parent="1" source="U9xf68Dv_fSdAsA3OCzk-54" target="U9xf68Dv_fSdAsA3OCzk-31">
          <mxGeometry width="50" height="50" relative="1" as="geometry">
            <mxPoint x="-909.9999999999997" y="-850" as="sourcePoint" />
            <mxPoint x="-978.58" y="-745" as="targetPoint" />
          </mxGeometry>
        </mxCell>
        <mxCell id="U9xf68Dv_fSdAsA3OCzk-24" value="Yes" style="text;html=1;align=center;verticalAlign=middle;resizable=0;points=[];autosize=1;strokeColor=none;fillColor=none;fontSize=30;fontFamily=Helvetica;fontColor=default;" vertex="1" parent="1">
          <mxGeometry x="-1000" y="-770" width="70" height="50" as="geometry" />
        </mxCell>
        <mxCell id="U9xf68Dv_fSdAsA3OCzk-25" value="" style="endArrow=classic;html=1;rounded=0;fontFamily=Helvetica;fontSize=30;fontColor=default;exitX=1;exitY=0.5;exitDx=0;exitDy=0;exitPerimeter=0;strokeWidth=3;entryX=0.5;entryY=1;entryDx=0;entryDy=0;" edge="1" parent="1" target="U9xf68Dv_fSdAsA3OCzk-28">
          <mxGeometry width="50" height="50" relative="1" as="geometry">
            <mxPoint x="60.83000000000038" y="-870" as="sourcePoint" />
            <mxPoint x="390.8299999999999" y="-885" as="targetPoint" />
            <Array as="points">
              <mxPoint x="271.8299999999999" y="-870" />
            </Array>
          </mxGeometry>
        </mxCell>
        <mxCell id="U9xf68Dv_fSdAsA3OCzk-27" value="No" style="text;html=1;align=center;verticalAlign=middle;resizable=0;points=[];autosize=1;strokeColor=none;fillColor=none;fontSize=30;fontFamily=Helvetica;fontColor=default;" vertex="1" parent="1">
          <mxGeometry x="90.82999999999993" y="-925" width="60" height="50" as="geometry" />
        </mxCell>
        <mxCell id="U9xf68Dv_fSdAsA3OCzk-28" value="Input&lt;br&gt;Temp" style="shape=parallelogram;html=1;strokeWidth=5;perimeter=parallelogramPerimeter;whiteSpace=wrap;rounded=1;arcSize=12;size=0.23;strokeColor=default;fontFamily=Helvetica;fontSize=30;fontColor=default;fillColor=default;" vertex="1" parent="1">
          <mxGeometry x="160.82999999999993" y="-1035" width="222.73" height="90" as="geometry" />
        </mxCell>
        <mxCell id="U9xf68Dv_fSdAsA3OCzk-29" value="" style="endArrow=classic;html=1;rounded=0;fontFamily=Helvetica;fontSize=30;fontColor=default;entryX=1;entryY=0.5;entryDx=0;entryDy=0;exitX=0;exitY=0.5;exitDx=0;exitDy=0;strokeWidth=3;" edge="1" parent="1" source="U9xf68Dv_fSdAsA3OCzk-28">
          <mxGeometry width="50" height="50" relative="1" as="geometry">
            <mxPoint x="200.82999999999993" y="-975" as="sourcePoint" />
            <mxPoint x="60" y="-990" as="targetPoint" />
          </mxGeometry>
        </mxCell>
        <mxCell id="U9xf68Dv_fSdAsA3OCzk-31" value="Set&lt;br&gt;Envrionment" style="rounded=1;whiteSpace=wrap;html=1;absoluteArcSize=1;arcSize=14;strokeWidth=5;strokeColor=default;fontFamily=Helvetica;fontSize=30;fontColor=default;fillColor=default;" vertex="1" parent="1">
          <mxGeometry x="-1255.8400000000001" y="-880" width="236.68" height="80" as="geometry" />
        </mxCell>
        <mxCell id="U9xf68Dv_fSdAsA3OCzk-32" value="" style="verticalLabelPosition=bottom;verticalAlign=top;html=1;shape=hexagon;perimeter=hexagonPerimeter2;arcSize=6;size=0.13725490196078433;strokeColor=default;strokeWidth=5;fontFamily=Helvetica;fontSize=30;fontColor=default;fillColor=default;spacing=0;" vertex="1" parent="1">
          <mxGeometry x="-1043.9199999999998" y="-1035" width="255" height="70" as="geometry" />
        </mxCell>
        <mxCell id="U9xf68Dv_fSdAsA3OCzk-33" value="Cooling Mode Default" style="text;html=1;align=center;verticalAlign=middle;resizable=0;points=[];autosize=1;strokeColor=none;fillColor=none;fontSize=23;fontFamily=Helvetica;fontColor=default;" vertex="1" parent="1">
          <mxGeometry x="-1036.4199999999998" y="-1020" width="240" height="40" as="geometry" />
        </mxCell>
        <mxCell id="U9xf68Dv_fSdAsA3OCzk-36" value="Yes" style="text;html=1;align=center;verticalAlign=middle;resizable=0;points=[];autosize=1;strokeColor=none;fillColor=none;fontSize=30;fontFamily=Helvetica;fontColor=default;" vertex="1" parent="1">
          <mxGeometry x="-144.16999999999996" y="-120" width="70" height="50" as="geometry" />
        </mxCell>
        <mxCell id="U9xf68Dv_fSdAsA3OCzk-37" value="" style="endArrow=classic;html=1;rounded=0;fontFamily=Helvetica;fontSize=30;fontColor=default;exitX=1;exitY=0.5;exitDx=0;exitDy=0;exitPerimeter=0;strokeWidth=3;entryX=0.5;entryY=0;entryDx=0;entryDy=0;" edge="1" target="U9xf68Dv_fSdAsA3OCzk-42" parent="1">
          <mxGeometry width="50" height="50" relative="1" as="geometry">
            <mxPoint x="-14.169999999999504" y="-405" as="sourcePoint" />
            <mxPoint x="117.19499999999982" y="-340" as="targetPoint" />
            <Array as="points">
              <mxPoint x="113.83000000000004" y="-405" />
            </Array>
          </mxGeometry>
        </mxCell>
        <mxCell id="U9xf68Dv_fSdAsA3OCzk-38" value="No" style="text;html=1;align=center;verticalAlign=middle;resizable=0;points=[];autosize=1;strokeColor=none;fillColor=none;fontSize=30;fontFamily=Helvetica;fontColor=default;" vertex="1" parent="1">
          <mxGeometry x="25.83000000000004" y="-450" width="60" height="50" as="geometry" />
        </mxCell>
        <mxCell id="U9xf68Dv_fSdAsA3OCzk-40" value="" style="endArrow=classic;html=1;rounded=0;fontFamily=Helvetica;fontSize=30;fontColor=default;exitX=0.5;exitY=1;exitDx=0;exitDy=0;strokeWidth=3;entryX=0.5;entryY=0;entryDx=0;entryDy=0;exitPerimeter=0;" edge="1" parent="1" target="U9xf68Dv_fSdAsA3OCzk-20">
          <mxGeometry width="50" height="50" relative="1" as="geometry">
            <mxPoint x="-142.49999999999943" y="-170" as="sourcePoint" />
            <mxPoint x="-142.16999999999996" y="-130" as="targetPoint" />
          </mxGeometry>
        </mxCell>
        <mxCell id="U9xf68Dv_fSdAsA3OCzk-41" value="" style="endArrow=classic;html=1;rounded=0;fontFamily=Helvetica;fontSize=30;fontColor=default;exitX=0.5;exitY=1;exitDx=0;exitDy=0;strokeWidth=3;entryX=1;entryY=0.5;entryDx=0;entryDy=0;" edge="1" parent="1" source="U9xf68Dv_fSdAsA3OCzk-42" target="U9xf68Dv_fSdAsA3OCzk-20">
          <mxGeometry width="50" height="50" relative="1" as="geometry">
            <mxPoint x="117.19499999999982" y="-60" as="sourcePoint" />
            <mxPoint x="116.83000000000004" y="105" as="targetPoint" />
            <Array as="points">
              <mxPoint x="113.83000000000004" y="50" />
            </Array>
          </mxGeometry>
        </mxCell>
        <mxCell id="U9xf68Dv_fSdAsA3OCzk-42" value="Set&lt;br&gt;Heating Mode" style="rounded=1;whiteSpace=wrap;html=1;absoluteArcSize=1;arcSize=14;strokeWidth=5;strokeColor=default;fontFamily=Helvetica;fontSize=30;fontColor=default;fillColor=default;" vertex="1" parent="1">
          <mxGeometry x="-4.170000000000073" y="-260" width="236.68" height="80" as="geometry" />
        </mxCell>
        <mxCell id="U9xf68Dv_fSdAsA3OCzk-44" value="Temp &amp;gt;= 24" style="strokeWidth=5;html=1;shape=mxgraph.flowchart.decision;whiteSpace=wrap;strokeColor=default;fontFamily=Helvetica;fontSize=25;fontColor=default;fillColor=default;" vertex="1" parent="1">
          <mxGeometry x="169.9999999999999" y="-370" width="256.66" height="90" as="geometry" />
        </mxCell>
        <mxCell id="U9xf68Dv_fSdAsA3OCzk-45" value="" style="verticalLabelPosition=bottom;verticalAlign=top;html=1;shape=hexagon;perimeter=hexagonPerimeter2;arcSize=6;size=0.13725490196078433;strokeColor=default;strokeWidth=5;fontFamily=Helvetica;fontSize=30;fontColor=default;fillColor=default;spacing=0;" vertex="1" parent="1">
          <mxGeometry x="-269.9999999999999" y="-450" width="255" height="70" as="geometry" />
        </mxCell>
        <mxCell id="U9xf68Dv_fSdAsA3OCzk-47" value="Temp Set" style="strokeWidth=5;html=1;shape=mxgraph.flowchart.decision;whiteSpace=wrap;strokeColor=default;fontFamily=Helvetica;fontSize=25;fontColor=default;fillColor=default;" vertex="1" parent="1">
          <mxGeometry x="-722.9100000000001" y="-649" width="256.66" height="90" as="geometry" />
        </mxCell>
        <mxCell id="U9xf68Dv_fSdAsA3OCzk-54" value="" style="strokeWidth=3;html=1;shape=mxgraph.flowchart.annotation_2;align=left;labelPosition=right;pointerEvents=1;strokeColor=default;fontFamily=Helvetica;fontSize=30;fontColor=default;fillColor=default;rotation=-90;" vertex="1" parent="1">
          <mxGeometry x="-1162.5" y="-1170" width="50" height="460" as="geometry" />
        </mxCell>
        <mxCell id="U9xf68Dv_fSdAsA3OCzk-55" value="Text" style="text;html=1;align=center;verticalAlign=middle;resizable=0;points=[];autosize=1;strokeColor=none;fillColor=none;fontSize=30;fontFamily=Helvetica;fontColor=default;" vertex="1" parent="1">
          <mxGeometry x="-256.67" y="-700" width="80" height="50" as="geometry" />
        </mxCell>
        <mxCell id="U9xf68Dv_fSdAsA3OCzk-56" value="" style="endArrow=classic;html=1;rounded=0;fontFamily=Helvetica;fontSize=30;fontColor=default;strokeWidth=3;exitX=0.5;exitY=1;exitDx=0;exitDy=0;" edge="1" parent="1" source="U9xf68Dv_fSdAsA3OCzk-31">
          <mxGeometry width="50" height="50" relative="1" as="geometry">
            <mxPoint x="-1130" y="-760" as="sourcePoint" />
            <mxPoint x="-1138" y="-740" as="targetPoint" />
          </mxGeometry>
        </mxCell>
        <mxCell id="U9xf68Dv_fSdAsA3OCzk-57" value="Input Temp" style="shape=parallelogram;html=1;strokeWidth=5;perimeter=parallelogramPerimeter;whiteSpace=wrap;rounded=1;arcSize=12;size=0.23;strokeColor=default;fontFamily=Helvetica;fontSize=30;fontColor=default;fillColor=default;" vertex="1" parent="1">
          <mxGeometry x="-723.75" y="-810" width="256.67" height="90" as="geometry" />
        </mxCell>
        <mxCell id="U9xf68Dv_fSdAsA3OCzk-58" value="" style="endArrow=classic;html=1;rounded=0;fontFamily=Helvetica;fontSize=30;fontColor=default;strokeWidth=3;exitX=0.5;exitY=1;exitDx=0;exitDy=0;entryX=0.5;entryY=0;entryDx=0;entryDy=0;entryPerimeter=0;" edge="1" parent="1" source="U9xf68Dv_fSdAsA3OCzk-57" target="U9xf68Dv_fSdAsA3OCzk-47">
          <mxGeometry width="50" height="50" relative="1" as="geometry">
            <mxPoint x="-227.07999999999998" y="-710" as="sourcePoint" />
            <mxPoint x="-307.08" y="-700" as="targetPoint" />
          </mxGeometry>
        </mxCell>
        <mxCell id="U9xf68Dv_fSdAsA3OCzk-59" value="Data Change" style="strokeWidth=5;html=1;shape=mxgraph.flowchart.decision;whiteSpace=wrap;strokeColor=default;fontFamily=Helvetica;fontSize=25;fontColor=default;fillColor=default;" vertex="1" parent="1">
          <mxGeometry x="-1265.8300000000002" y="-740" width="256.66" height="90" as="geometry" />
        </mxCell>
        <mxCell id="U9xf68Dv_fSdAsA3OCzk-60" value="" style="endArrow=classic;html=1;rounded=0;fontFamily=Helvetica;fontSize=30;fontColor=default;strokeWidth=3;exitX=0.5;exitY=1;exitDx=0;exitDy=0;exitPerimeter=0;" edge="1" parent="1" source="U9xf68Dv_fSdAsA3OCzk-59">
          <mxGeometry width="50" height="50" relative="1" as="geometry">
            <mxPoint x="-1138.34" y="-600" as="sourcePoint" />
            <mxPoint x="-1137" y="-580" as="targetPoint" />
          </mxGeometry>
        </mxCell>
        <mxCell id="U9xf68Dv_fSdAsA3OCzk-61" value="Yes" style="text;html=1;align=center;verticalAlign=middle;resizable=0;points=[];autosize=1;strokeColor=none;fillColor=none;fontSize=30;fontFamily=Helvetica;fontColor=default;" vertex="1" parent="1">
          <mxGeometry x="-1790" y="-590" width="70" height="50" as="geometry" />
        </mxCell>
        <mxCell id="U9xf68Dv_fSdAsA3OCzk-62" value="No" style="text;html=1;align=center;verticalAlign=middle;resizable=0;points=[];autosize=1;strokeColor=none;fillColor=none;fontSize=30;fontFamily=Helvetica;fontColor=default;" vertex="1" parent="1">
          <mxGeometry x="-1134.17" y="-639" width="60" height="50" as="geometry" />
        </mxCell>
        <mxCell id="U9xf68Dv_fSdAsA3OCzk-63" value="" style="endArrow=classic;html=1;rounded=0;fontFamily=Helvetica;fontSize=30;fontColor=default;strokeWidth=3;exitX=1;exitY=0.5;exitDx=0;exitDy=0;exitPerimeter=0;entryX=1;entryY=0.5;entryDx=0;entryDy=0;" edge="1" parent="1" source="U9xf68Dv_fSdAsA3OCzk-59" target="U9xf68Dv_fSdAsA3OCzk-31">
          <mxGeometry width="50" height="50" relative="1" as="geometry">
            <mxPoint x="-1000" y="-660" as="sourcePoint" />
            <mxPoint x="-880" y="-840" as="targetPoint" />
            <Array as="points">
              <mxPoint x="-880" y="-695" />
              <mxPoint x="-880" y="-840" />
            </Array>
          </mxGeometry>
        </mxCell>
      </root>
    </mxGraphModel>
  </diagram>
</mxfile>
